<svg xmlns="http://www.w3.org/2000/svg" viewBox="0 0 400 400" width="400" height="400">
  <title>Ordo VIII kézjel – tető alakú, egymásba fűzött nyolc ujj</title>
  <rect width="400" height="400" fill="#6B5843"/>
  <!-- a hüvelykujjak a tenyérbe hajtva, ezért kívülről nem látszanak -->
    <polygon points="136.3,192.8 219.7,279.2 130.3,337.7 -20.2,491.4 -84.1,425.2 74.7,280.2" fill="#E4D8BE" stroke="#3E3226" stroke-width="3.5" stroke-linejoin="round"/>
  <polygon points="105.8,362.7 -18.8,492.8 -85.5,423.8 48.8,303.8" fill="#4E4031" stroke="#3E3226" stroke-width="3.5" stroke-linejoin="round"/>
  <polygon points="263.7,192.8 180.3,279.2 269.7,337.7 420.2,491.4 484.1,425.2 325.3,280.2" fill="#E4D8BE" stroke="#3E3226" stroke-width="3.5" stroke-linejoin="round"/>
  <polygon points="294.2,362.7 418.8,492.8 485.5,423.8 351.2,303.8" fill="#4E4031" stroke="#3E3226" stroke-width="3.5" stroke-linejoin="round"/>
  <line x1="253.3" y1="203.6" x2="168.4" y2="121.7" stroke="#3E3226" stroke-width="24" stroke-linecap="round"/><line x1="253.3" y1="203.6" x2="168.4" y2="121.7" stroke="#E4D8BE" stroke-width="17" stroke-linecap="round"/>
  <line x1="232.4" y1="225.2" x2="137.5" y2="133.5" stroke="#3E3226" stroke-width="24" stroke-linecap="round"/><line x1="232.4" y1="225.2" x2="137.5" y2="133.5" stroke="#E4D8BE" stroke-width="17" stroke-linecap="round"/>
  <line x1="211.6" y1="246.8" x2="122.4" y2="160.7" stroke="#3E3226" stroke-width="24" stroke-linecap="round"/><line x1="211.6" y1="246.8" x2="122.4" y2="160.7" stroke="#E4D8BE" stroke-width="17" stroke-linecap="round"/>
  <line x1="190.7" y1="268.4" x2="120.2" y2="200.3" stroke="#3E3226" stroke-width="24" stroke-linecap="round"/><line x1="190.7" y1="268.4" x2="120.2" y2="200.3" stroke="#E4D8BE" stroke-width="17" stroke-linecap="round"/>
  <line x1="146.7" y1="203.6" x2="231.6" y2="121.7" stroke="#3E3226" stroke-width="24" stroke-linecap="round"/><line x1="146.7" y1="203.6" x2="231.6" y2="121.7" stroke="#E4D8BE" stroke-width="17" stroke-linecap="round"/>
  <line x1="167.6" y1="225.2" x2="262.5" y2="133.5" stroke="#3E3226" stroke-width="24" stroke-linecap="round"/><line x1="167.6" y1="225.2" x2="262.5" y2="133.5" stroke="#E4D8BE" stroke-width="17" stroke-linecap="round"/>
  <line x1="188.4" y1="246.8" x2="277.6" y2="160.7" stroke="#3E3226" stroke-width="24" stroke-linecap="round"/><line x1="188.4" y1="246.8" x2="277.6" y2="160.7" stroke="#E4D8BE" stroke-width="17" stroke-linecap="round"/>
  <line x1="209.3" y1="268.4" x2="279.8" y2="200.3" stroke="#3E3226" stroke-width="24" stroke-linecap="round"/><line x1="209.3" y1="268.4" x2="279.8" y2="200.3" stroke="#E4D8BE" stroke-width="17" stroke-linecap="round"/>
  <line x1="190.6" y1="184.9" x2="166.2" y2="161.2" stroke="#3E3226" stroke-width="24" stroke-linecap="butt"/><line x1="190.6" y1="184.9" x2="166.2" y2="161.2" stroke="#E4D8BE" stroke-width="17" stroke-linecap="butt"/>
  <line x1="233.8" y1="184.9" x2="209.4" y2="161.2" stroke="#3E3226" stroke-width="24" stroke-linecap="butt"/><line x1="233.8" y1="184.9" x2="209.4" y2="161.2" stroke="#E4D8BE" stroke-width="17" stroke-linecap="butt"/>
  <line x1="190.6" y1="226.6" x2="166.2" y2="202.9" stroke="#3E3226" stroke-width="24" stroke-linecap="butt"/><line x1="190.6" y1="226.6" x2="166.2" y2="202.9" stroke="#E4D8BE" stroke-width="17" stroke-linecap="butt"/>
  <line x1="233.8" y1="226.6" x2="209.4" y2="202.9" stroke="#3E3226" stroke-width="24" stroke-linecap="butt"/><line x1="233.8" y1="226.6" x2="209.4" y2="202.9" stroke="#E4D8BE" stroke-width="17" stroke-linecap="butt"/>
</svg>
